<?xml version="1.0" encoding="UTF-8" standalone="no"?>
<svg
   xmlns:dc="http://purl.org/dc/elements/1.1/"
   xmlns:cc="http://creativecommons.org/ns#"
   xmlns:rdf="http://www.w3.org/1999/02/22-rdf-syntax-ns#"
   xmlns:svg="http://www.w3.org/2000/svg"
   xmlns="http://www.w3.org/2000/svg"
   xmlns:sodipodi="http://sodipodi.sourceforge.net/DTD/sodipodi-0.dtd"
   xmlns:inkscape="http://www.inkscape.org/namespaces/inkscape"
   width="260"
   height="260"
   viewBox="0 0 260 260"
   fill="none"
   version="1.1"
   id="svg6"
   sodipodi:docname="roadMapImg.svg"
   inkscape:version="1.0.2-2 (e86c870879, 2021-01-15)">
  <metadata
     id="metadata12">
    <rdf:RDF>
      <cc:Work
         rdf:about="">
        <dc:format>image/svg+xml</dc:format>
        <dc:type
           rdf:resource="http://purl.org/dc/dcmitype/StillImage" />
      </cc:Work>
    </rdf:RDF>
  </metadata>
  <defs
     id="defs10" />
  <sodipodi:namedview
     pagecolor="#ffffff"
     bordercolor="#666666"
     borderopacity="1"
     objecttolerance="10"
     gridtolerance="10"
     guidetolerance="10"
     inkscape:pageopacity="0"
     inkscape:pageshadow="2"
     inkscape:window-width="1920"
     inkscape:window-height="1000"
     id="namedview8"
     showgrid="false"
     inkscape:zoom="4.4275763"
     inkscape:cx="63.875699"
     inkscape:cy="138.549"
     inkscape:window-x="-11"
     inkscape:window-y="-11"
     inkscape:window-maximized="1"
     inkscape:current-layer="svg6" />
  <path
     fill-rule="evenodd"
     clip-rule="evenodd"
     d="m 94.0108,99.17 c -7.1166,8.296 -11.4226,19.069 -11.4226,30.83 0,11.761 4.306,22.534 11.4251,30.8298 L 83.6799,171.1631 C 73.9325,160.2049 68,145.784 68,130 68,114.216 73.9325,99.793 83.6775,88.837 Z M 130,82.588 c 11.76,0 22.534,4.306 30.83,11.423 L 171.163,83.677 C 160.207,73.933 145.784,68 130,68 114.215,68 99.7926,73.933 88.8368,83.68 L 99.1701,94.013 C 107.466,86.894 118.239,82.588 130,82.588 Z m 0,87.5296 c -22.121,0 -40.1176,-17.9966 -40.1176,-40.1176 0,-22.121 17.9966,-40.118 40.1176,-40.118 22.121,0 40.118,17.997 40.118,40.118 0,22.121 -17.997,40.1176 -40.118,40.1176 z M 155.474,126.633 114.211,109.44 c -1.364,-0.569 -2.935,-0.26 -3.98,0.786 -1.046,1.045 -1.357,2.618 -0.788,3.982 l 17.192,41.263 c 0.598,1.439 2.045,2.337 3.601,2.237 1.556,-0.1 2.874,-1.177 3.285,-2.679 l 4.61,-16.901 16.9,-4.61 c 1.503,-0.411 2.58,-1.729 2.679,-3.285 0.005,-0.08 0.008,-0.158 0.008,-0.235 0,-1.464 -0.88,-2.797 -2.244,-3.365 z m -21.277,5.008 c -1.245,0.338 -2.218,1.313 -2.558,2.558 l -2.363,8.658 -9.697,-23.275 23.273,9.698 z M 130,177.4118 c -11.761,0 -22.534,-4.306 -30.8299,-11.4226 L 88.8368,176.3225 C 99.7926,186.0675 114.215,192 130,192 c 15.784,0 30.205,-5.9325 41.163,-15.6799 L 160.83,165.9867 c -8.296,7.1191 -19.07,11.4251 -30.83,11.4251 z m 35.989,-16.582 c 7.117,-8.2958 11.423,-19.0688 11.423,-30.8298 0,-11.761 -4.306,-22.534 -11.425,-30.83 L 176.32,88.837 C 186.067,99.793 192,114.216 192,130 c 0,15.784 -5.933,30.2074 -15.677,41.1631 z"
     fill="#6851fe"
     id="path2" />
  <circle
     cx="130"
     cy="130"
     r="129"
     stroke="#6851fe"
     stroke-width="2"
     stroke-dasharray="30 30"
     id="circle4" />
</svg>
